<svg width="141" height="29" viewBox="0 0 141 29" fill="none" xmlns="http://www.w3.org/2000/svg">
<path fill-rule="evenodd" clip-rule="evenodd" d="M9.6264 5.21563C8.19992 6.84495 6.12923 7.77338 3.94811 7.77338H0V0.327684H13.915L9.6264 5.21563ZM23.5506 5.21563C22.1241 6.84495 20.0443 7.77338 17.8723 7.77338H13.9242V0.327684H27.8484L23.5506 5.21563ZM41.7635 7.77338H27.8392V0.327684H31.7874C33.9685 0.327684 36.0392 1.26522 37.4748 2.88544L41.7635 7.77338ZM9.6264 14.2633C8.19992 15.8927 6.12003 16.8302 3.93891 16.8302H0V9.37539H13.915L9.6264 14.2633ZM23.5506 14.2633C22.1149 15.8927 20.0443 16.8302 17.8631 16.8302H13.9242V9.37539H27.8392L23.5506 14.2633ZM37.4748 14.2633C36.0392 15.8927 33.9685 16.8302 31.7874 16.8302H27.8392V9.37539H41.7635L37.4748 14.2633ZM9.6356 23.311C8.20912 24.9404 6.12923 25.8688 3.94811 25.8688H0.00920306V18.4231H13.9242L9.6356 23.311ZM23.5598 23.311C22.1241 24.9404 20.0535 25.8688 17.8723 25.8688H13.9334V18.4231H27.8484L23.5598 23.311ZM107.519 0.354991H109.746V2.44852H107.519V0.354991ZM66.1976 24.1485H67.0903V25.796H65.7466C64.9736 25.796 64.2649 25.1952 64.2649 24.4215V24.1303H64.1637C63.7956 25.2225 62.9397 25.9598 61.2371 25.9598C59.5438 25.9598 58.4026 25.0314 58.4026 23.5295C58.4026 22.2006 59.0928 21.3176 61.1175 20.9626C62.9949 20.6441 64.0809 20.553 64.1177 19.7884C64.1545 19.0421 63.6759 18.7235 62.5532 18.7235C61.3108 18.7235 60.8322 19.306 60.8322 20.2163H58.7615C58.8259 18.596 60.142 17.2125 62.5716 17.2125C65.0104 17.2125 66.1976 18.2684 66.1976 19.9159V24.1485ZM64.1177 21.3814C63.7035 21.709 63.2802 21.7819 62.774 21.8911L61.8905 22.1004C60.9518 22.3371 60.5653 22.6375 60.5653 23.3657C60.5653 24.0847 61.0991 24.4579 61.8353 24.4579C63.3262 24.4579 64.1177 23.393 64.1177 21.8274V21.3814ZM48.9603 0.354991H51.2978V11.7511H48.9603V0.354991ZM71.9403 11.9149C71.9464 11.9149 71.9495 11.9149 71.9495 11.9149H71.9403ZM71.9403 11.9149C69.299 11.9149 67.7437 10.3038 67.7437 7.54583C67.7437 4.77872 69.3082 3.16761 71.9495 3.16761C72.9526 3.16761 73.6336 3.44068 73.6981 3.45888C75.373 4.09605 76.1277 5.68895 76.1277 7.54583C76.1277 7.69146 76.1246 7.8371 76.1185 7.98274H69.9248C70.0629 9.4118 70.7899 10.2401 71.9403 10.2401C72.9434 10.2401 73.652 9.72128 73.9097 8.86566H76.0909C75.7411 10.7863 74.2042 11.9149 71.9403 11.9149ZM69.98 6.69021H73.9005C73.6981 5.60703 73.0815 4.82423 71.9403 4.82423C70.8083 4.82423 70.1825 5.60703 69.98 6.69021ZM137.098 10.1036H137.981V11.742H136.647C135.865 11.742 135.165 11.1412 135.165 10.3766V10.0854H135.064C134.696 11.1777 133.831 11.9058 132.137 11.9058C130.444 11.9058 129.303 10.9774 129.303 9.48462C129.303 8.15568 129.993 7.26365 132.018 6.91776C133.886 6.59918 134.981 6.50816 135.018 5.73446C135.055 4.99717 134.576 4.66949 133.444 4.66949C132.211 4.66949 131.733 5.25204 131.733 6.16227H129.653C129.717 4.55116 131.033 3.16761 133.472 3.16761C135.911 3.16761 137.098 4.22348 137.098 5.8619V10.1036ZM135.018 7.34557C134.595 7.67326 134.181 7.73697 133.674 7.8553L132.782 8.06466C131.852 8.29221 131.466 8.60169 131.466 9.32078C131.466 10.0399 131.99 10.4131 132.736 10.4131C134.227 10.4131 135.018 9.35719 135.018 7.79159C135.018 7.78249 135.018 7.34557 135.018 7.34557ZM55.2091 7.0361V11.7511H52.9728V3.33145H55.0527L55.1079 5.28845H55.2091C55.4668 3.95041 56.6908 3.16761 57.9516 3.16761C58.8719 3.16761 59.6082 3.42247 60.142 3.9322C60.7003 4.46014 60.9794 5.20653 60.9794 6.17137V11.7602H58.7431V6.51726C58.7431 5.45229 58.2461 4.92436 57.1326 4.92436C56.5804 4.92436 56.111 5.10944 55.7245 5.4796C55.338 5.8619 55.2091 6.38073 55.2091 7.0452V7.0361ZM53.617 14.409C56.5068 14.409 58.2185 15.8471 58.2185 18.2957C58.2185 20.7442 56.5068 22.1915 53.5986 22.1915H51.2886V25.8051H48.9511V14.409H53.617ZM55.7981 18.3048C55.7981 16.994 55.0343 16.2112 53.7182 16.2112H51.2886V20.3983H53.7182C55.0159 20.3983 55.7981 19.6064 55.7981 18.3048ZM138.764 0.354991H141V11.7511H138.764V0.354991ZM64.9368 3.33145H67.44V4.86064H64.946V8.91117C64.946 9.70308 65.4613 10.1582 66.308 10.1582C66.7129 10.1582 67.1363 10.0581 67.44 9.88512V11.5326C66.9338 11.7602 66.2436 11.9149 65.5994 11.9149C63.7864 11.9149 62.728 10.8045 62.728 9.09322V4.86064H61.504V3.33145H62.728V3.17671C62.728 2.63967 62.9121 2.12994 63.2618 1.72944L64.7711 0H64.9368V3.33145ZM91.3219 17.2216H92.1134V19.2059H88.8555L88.9107 25.8051H86.6744V17.3945H88.6991L88.7543 18.9874H88.8463L89.8034 17.9043C90.1899 17.4765 90.7329 17.2216 91.3219 17.2216ZM99.9268 10.1036H100.819V11.742H99.4758C98.6936 11.742 97.9941 11.1412 97.9941 10.3766V10.0854H97.8929C97.5248 11.1777 96.6597 11.9058 94.9663 11.9058C93.273 11.9058 92.1318 10.9774 92.1318 9.48462C92.1318 8.15568 92.822 7.26365 94.8467 6.91776C96.7149 6.59918 97.8101 6.50816 97.8469 5.73446C97.8837 4.99717 97.4051 4.66949 96.2823 4.66949C95.0399 4.66949 94.5614 5.25204 94.5614 6.16227H92.4907C92.5551 4.55116 93.8712 3.16761 96.3008 3.16761C98.7396 3.16761 99.9268 4.22348 99.9268 5.8619V10.1036ZM97.8469 7.34557C97.4235 7.67326 97.0094 7.73697 96.5032 7.8553L95.6198 8.06466C94.681 8.29221 94.2945 8.60169 94.2945 9.32078C94.2945 10.0399 94.8191 10.4131 95.5645 10.4131C97.0554 10.4131 97.8469 9.35719 97.8469 7.78249V7.34557ZM119.511 7.54583C119.511 10.2947 117.873 11.9149 115.093 11.9149C112.314 11.9149 110.658 10.2947 110.658 7.54583C110.658 4.79692 112.314 3.16761 115.093 3.16761C117.873 3.16761 119.511 4.79692 119.511 7.54583ZM117.247 7.54583C117.247 5.90741 116.446 4.91525 115.093 4.91525C113.741 4.91525 112.94 5.90741 112.94 7.54583C112.94 9.19335 113.741 10.1582 115.093 10.1582C116.446 10.1582 117.247 9.19335 117.247 7.54583ZM103.939 3.34055H106.443V4.86064H103.949V8.92028C103.949 9.70308 104.464 10.1582 105.311 10.1582C105.715 10.1582 106.139 10.0581 106.443 9.89422V11.5326C105.936 11.7693 105.246 11.9149 104.602 11.9149C102.789 11.9149 101.731 10.8045 101.731 9.10232V4.86064H100.497V3.34055H101.721V3.17671C101.721 2.64878 101.905 2.12994 102.264 1.72944L103.764 0H103.939V3.34055ZM107.51 3.34055H109.746V11.7602H107.51V3.34055ZM127.619 3.9322C128.177 4.46014 128.456 5.20956 128.456 6.18048V11.7602H126.22V6.51726C126.22 5.45229 125.714 4.92436 124.6 4.92436C124.048 4.92436 123.579 5.10944 123.192 5.4796C122.806 5.8619 122.677 6.38073 122.677 7.0361V11.7511H120.44V3.34055H122.52L122.575 5.28845H122.677C122.934 3.95041 124.158 3.17671 125.419 3.17671C126.34 3.17671 127.076 3.42247 127.619 3.9322ZM79.2107 5.16102L79.2659 11.7602H77.0296V3.34055H79.0542L79.1095 4.94256H79.2107L80.1586 3.85938C80.5359 3.42247 81.0881 3.17671 81.6679 3.17671H82.4686V5.16102H79.2107ZM75.5939 18.3776C76.2841 19.1877 76.6338 20.2709 76.6338 21.5998C76.6338 22.9227 76.2872 23.9877 75.5939 24.7947C74.8883 25.5957 73.9404 25.9962 72.7501 25.9962C71.655 25.9962 70.6611 25.3227 70.2193 24.2941H70.1733V29H67.9462V17.3854H70.0352L70.0813 18.8236H70.1825C70.5874 17.8497 71.5261 17.1943 72.7501 17.1943C73.9404 17.1882 74.8883 17.5827 75.5939 18.3776ZM74.3607 21.527C74.3607 20.6714 74.1766 20.016 73.8085 19.57C73.4312 19.1149 72.8974 18.8873 72.2072 18.8873C71.5261 18.8873 71.0016 19.124 70.6242 19.5882C70.2469 20.0615 70.0629 20.7169 70.0629 21.5998C70.0629 22.4797 70.2561 23.1472 70.6426 23.6023C71.0108 24.0665 71.5445 24.3032 72.2072 24.3032C72.8821 24.3032 73.4128 24.0574 73.7993 23.5659C74.1766 23.0926 74.3607 22.3917 74.3607 21.527ZM83.2969 17.5311C84.9718 18.1591 85.7357 19.752 85.7357 21.6089C85.7357 21.7606 85.7295 21.9093 85.7173 22.0549H79.5236C79.6616 23.4749 80.3887 24.3032 81.5391 24.3032C82.5514 24.3032 83.26 23.7844 83.5085 22.9288H85.6896C85.3399 24.8584 83.803 25.9871 81.5391 25.9871C78.8978 25.9871 77.3425 24.376 77.3425 21.6089C77.3425 18.8418 78.8978 17.2307 81.5391 17.2307C82.5422 17.2307 83.2324 17.5038 83.2876 17.5311H83.2969ZM83.5269 20.7533C83.3245 19.6701 82.6987 18.8873 81.5575 18.8873C80.4255 18.8873 79.7997 19.6701 79.5972 20.7533H83.5269ZM87.4658 4.92436C86.9137 4.92436 86.4443 5.10944 86.0578 5.4796C85.6712 5.8619 85.5332 6.38073 85.5332 7.0361V11.7511H83.2969V3.34055H85.3767L85.4412 5.28845H85.5332C85.7909 3.95041 87.0149 3.17671 88.2757 3.17671C89.2052 3.17671 89.9323 3.42247 90.4752 3.9322C91.0335 4.46014 91.3127 5.20956 91.3127 6.18048V11.7602H89.0764V6.51726C89.0764 5.45229 88.5794 4.92436 87.4658 4.92436ZM24.8206 24.4215H25.9802V24.6127H25.5017V25.8961H25.2992V24.6127H24.8206V24.4215ZM27.8577 24.4215V25.887H27.6552V24.5763L27.5355 24.9222L27.1398 25.887H26.9373L26.5508 24.9222L26.4312 24.5672V25.8779H26.2287V24.4124H26.5416L26.9373 25.3955L27.0386 25.6685L27.1398 25.3955L27.5355 24.4124H27.8484L27.8577 24.4215Z" fill="white"/>
</svg>
