<svg width="129" height="14" viewBox="0 0 129 14" fill="none" xmlns="http://www.w3.org/2000/svg">
<path d="M2.978 13H1.802V3.228H5.694C6.282 3.228 6.77667 3.34467 7.178 3.578C7.58867 3.802 7.89667 4.124 8.102 4.544C8.31667 4.95467 8.424 5.44933 8.424 6.028C8.424 6.59733 8.31667 7.092 8.102 7.512C7.89667 7.932 7.58867 8.25867 7.178 8.492C6.77667 8.716 6.282 8.828 5.694 8.828H2.978V13ZM2.978 4.264V7.792H5.694C6.002 7.792 6.26333 7.74067 6.478 7.638C6.702 7.526 6.87 7.36733 6.982 7.162C7.10333 6.94733 7.164 6.69067 7.164 6.392V5.664C7.164 5.36533 7.10333 5.11333 6.982 4.908C6.87 4.69333 6.702 4.53467 6.478 4.432C6.26333 4.32 6.002 4.264 5.694 4.264H2.978ZM14.0162 13.168C13.1762 13.168 12.4436 12.9767 11.8182 12.594C11.2022 12.202 10.7216 11.6327 10.3762 10.886C10.0402 10.13 9.87223 9.206 9.87223 8.114C9.87223 7.022 10.0402 6.10267 10.3762 5.356C10.7216 4.6 11.2022 4.03067 11.8182 3.648C12.4436 3.256 13.1762 3.06 14.0162 3.06C14.8562 3.06 15.5842 3.256 16.2002 3.648C16.8256 4.03067 17.3062 4.6 17.6422 5.356C17.9876 6.10267 18.1602 7.022 18.1602 8.114C18.1602 9.206 17.9876 10.13 17.6422 10.886C17.3062 11.6327 16.8256 12.202 16.2002 12.594C15.5842 12.9767 14.8562 13.168 14.0162 13.168ZM14.0162 12.118C14.5856 12.118 15.0849 11.9873 15.5142 11.726C15.9436 11.4553 16.2796 11.082 16.5222 10.606C16.7742 10.13 16.9002 9.57 16.9002 8.926V7.302C16.9002 6.658 16.7742 6.098 16.5222 5.622C16.2796 5.13667 15.9436 4.76333 15.5142 4.502C15.0849 4.24067 14.5856 4.11 14.0162 4.11C13.4562 4.11 12.9569 4.24067 12.5182 4.502C12.0889 4.76333 11.7482 5.13667 11.4962 5.622C11.2536 6.098 11.1322 6.658 11.1322 7.302V8.926C11.1322 9.57 11.2536 10.13 11.4962 10.606C11.7482 11.082 12.0889 11.4553 12.5182 11.726C12.9569 11.9873 13.4562 12.118 14.0162 12.118ZM23.0043 13H21.7023L19.3223 3.228H20.5683L21.6183 7.932L22.4303 11.586H22.4583L23.3683 7.932L24.6003 3.228H25.9443L27.1343 7.932L28.0443 11.572H28.0863L28.9263 7.932L30.0323 3.228H31.2363L28.7303 13H27.4283L26.1543 8.128L25.2583 4.544H25.2303L24.3063 8.128L23.0043 13ZM38.8471 13H32.8831V3.228H38.8471V4.264H34.0591V7.54H38.5671V8.576H34.0591V11.964H38.8471V13ZM42.2912 8.8V13H41.1152V3.228H45.0072C45.5765 3.228 46.0619 3.33533 46.4632 3.55C46.8739 3.76467 47.1865 4.07733 47.4012 4.488C47.6252 4.89867 47.7372 5.40267 47.7372 6C47.7372 6.70933 47.5692 7.29733 47.2332 7.764C46.8972 8.23067 46.4119 8.53867 45.7772 8.688L48.0172 13H46.6872L44.5732 8.8H42.2912ZM42.2912 7.792H45.0072C45.3152 7.792 45.5765 7.74067 45.7912 7.638C46.0152 7.526 46.1832 7.36733 46.2952 7.162C46.4165 6.94733 46.4772 6.69067 46.4772 6.392V5.664C46.4772 5.36533 46.4165 5.11333 46.2952 4.908C46.1832 4.69333 46.0152 4.53467 45.7912 4.432C45.5765 4.32 45.3152 4.264 45.0072 4.264H42.2912V7.792ZM56.1043 13H50.1403V3.228H56.1043V4.264H51.3163V7.54H55.8243V8.576H51.3163V11.964H56.1043V13ZM58.3724 13V3.228H61.6484C62.4604 3.228 63.1651 3.41 63.7624 3.774C64.3691 4.12867 64.8357 4.67 65.1624 5.398C65.4891 6.11667 65.6524 7.022 65.6524 8.114C65.6524 9.206 65.4891 10.116 65.1624 10.844C64.8357 11.5627 64.3691 12.104 63.7624 12.468C63.1651 12.8227 62.4604 13 61.6484 13H58.3724ZM59.5484 11.964H61.6484C62.1897 11.964 62.6657 11.8427 63.0764 11.6C63.4871 11.3573 63.8091 11.012 64.0424 10.564C64.2757 10.1067 64.3924 9.556 64.3924 8.912V7.316C64.3924 6.672 64.2757 6.12133 64.0424 5.664C63.8091 5.20667 63.4871 4.86133 63.0764 4.628C62.6657 4.38533 62.1897 4.264 61.6484 4.264H59.5484V11.964ZM71.2136 13V3.228H75.2316C76.0342 3.228 76.6689 3.45667 77.1356 3.914C77.6022 4.37133 77.8356 4.98267 77.8356 5.748C77.8356 6.23333 77.7469 6.62067 77.5696 6.91C77.4016 7.19933 77.1916 7.414 76.9396 7.554C76.6969 7.694 76.4682 7.78267 76.2536 7.82V7.904C76.4309 7.91333 76.6269 7.96467 76.8416 8.058C77.0656 8.142 77.2756 8.27267 77.4716 8.45C77.6769 8.62733 77.8449 8.856 77.9756 9.136C78.1062 9.416 78.1716 9.76133 78.1716 10.172C78.1716 10.704 78.0596 11.1847 77.8356 11.614C77.6209 12.0433 77.3222 12.384 76.9396 12.636C76.5662 12.8787 76.1369 13 75.6516 13H71.2136ZM72.3896 8.464V11.964H75.2876C75.6236 11.964 75.9129 11.908 76.1556 11.796C76.3982 11.6747 76.5849 11.502 76.7156 11.278C76.8462 11.054 76.9116 10.7787 76.9116 10.452V9.976C76.9116 9.64933 76.8462 9.374 76.7156 9.15C76.5849 8.926 76.3982 8.758 76.1556 8.646C75.9129 8.52467 75.6236 8.464 75.2876 8.464H72.3896ZM72.3896 4.264V7.456H75.0916C75.3996 7.456 75.6609 7.40467 75.8756 7.302C76.0996 7.19 76.2722 7.036 76.3936 6.84C76.5149 6.63467 76.5756 6.38733 76.5756 6.098V5.622C76.5756 5.33267 76.5149 5.09 76.3936 4.894C76.2722 4.68867 76.0996 4.53467 75.8756 4.432C75.6609 4.32 75.3996 4.264 75.0916 4.264H72.3896ZM83.4222 13H82.2462V9.136L78.8862 3.228H80.2302L82.8342 7.932H82.8762L85.4802 3.228H86.8242L83.4222 9.094V13Z" fill="#5F6169"/>
<g clip-path="url(#clip0_265_16817)">
<path d="M94.5724 6.22377L94.5519 12.8734H94.2358L93.7915 12.8709C93.0695 12.8173 92.5001 12.2139 92.5 11.4778V5.91384C92.5 3.55311 93.9364 2.34192 96.7885 2.34192C97.0205 2.34192 98.3882 2.34869 98.5963 2.36228V4.15663C98.4215 4.13724 97.0818 4.12779 96.8707 4.12779C95.2496 4.12779 94.5929 4.76423 94.5724 6.22377Z" fill="#521D67"/>
<path fill-rule="evenodd" clip-rule="evenodd" d="M107.887 11.1034V4.22658H109.791C110.556 4.22658 111.066 4.4461 111.448 4.87053C111.862 5.33892 111.926 6.03895 111.926 7.6198C111.926 9.20066 111.862 9.98849 111.448 10.4571C111.066 10.8815 110.555 11.1011 109.791 11.1011H107.915V11.1033L107.887 11.1034ZM107.49 2.45276H105.795V12.8748H106.238H107.969H109.915C111.095 12.8748 112.162 12.5675 112.911 11.8795C114.186 10.7084 114.058 9.18617 114.058 7.61981C114.058 6.05363 114.186 4.61917 112.911 3.44808C112.162 2.76016 111.094 2.45277 109.915 2.45277L107.49 2.45276Z" fill="#521D67"/>
<path d="M117.425 12.8748V2.45276H117.133C117.107 2.45486 116.841 2.45503 116.539 2.45469C115.802 2.49263 115.216 3.10286 115.216 3.84986H115.212C115.212 3.87716 115.211 3.90474 115.209 3.93306V12.8748H117.425Z" fill="#521D67"/>
<path fill-rule="evenodd" clip-rule="evenodd" d="M104.688 12.8734V11.226V5.91384C104.688 3.55311 103.251 2.34192 100.399 2.34192C100.228 2.34192 99.8624 2.34567 99.7039 2.35324V4.14173C99.8326 4.13252 100.17 4.12779 100.317 4.12779C101.938 4.12779 102.595 4.76424 102.595 6.07825V6.81712H99.8452C97.4649 6.81712 96.2544 8.06955 96.2544 9.81458C96.2544 10.6972 96.5416 11.4978 97.0752 12.0522C97.7113 12.6886 98.5729 12.9999 99.8658 12.9999C101.144 12.9999 101.895 12.6609 102.646 11.919C102.824 12.4549 103.318 12.8467 103.907 12.8733H104.626L104.688 12.8734ZM96.671 3.83308L96.6646 3.84041L96.671 3.84644V3.83308ZM102.595 9.11654C102.595 9.85564 102.451 10.3483 102.143 10.6561C101.589 11.19 100.994 11.2515 100.194 11.2515C98.8808 11.2515 98.2858 10.7179 98.2858 9.77352C98.2858 8.829 98.9219 8.27478 100.153 8.27478H102.595L102.595 9.11654Z" fill="#521D67"/>
<path fill-rule="evenodd" clip-rule="evenodd" d="M120.723 5.79965L120.967 6.2263C121.232 6.77016 121.453 7.77866 120.769 8.857L118.227 12.8583H120.875L123.02 9.21312L125.15 12.8583H127.827L121.132 2.45276H118.51L120.723 5.79965Z" fill="#521D67"/>
<path fill-rule="evenodd" clip-rule="evenodd" d="M123.739 4.42358L125.093 2.21709L125.321 1.84509C125.635 1.39137 126.274 0.727852 127.545 0.683038C127.647 0.679398 127.74 0.670469 127.827 0.657218L128.5 0.657104L125 6.33798L123.739 4.42358Z" fill="#B4D342"/>
</g>
<defs>
<clipPath id="clip0_265_16817">
<rect width="36" height="12.3429" fill="white" transform="translate(92.5 0.657104)"/>
</clipPath>
</defs>
</svg>
