<svg width="166" height="62" viewBox="0 0 166 62" fill="none" xmlns="http://www.w3.org/2000/svg">
<path d="M14.7496 20.6119L0 0H158C162.418 0 166 3.58172 166 8V62H95.2597C63.3176 62 33.3379 46.5883 14.7496 20.6119Z" fill="#006963"/>
<path d="M74.124 23H73.116V14.624H76.452C76.956 14.624 77.38 14.724 77.724 14.924C78.076 15.116 78.34 15.392 78.516 15.752C78.7 16.104 78.792 16.528 78.792 17.024C78.792 17.512 78.7 17.936 78.516 18.296C78.34 18.656 78.076 18.936 77.724 19.136C77.38 19.328 76.956 19.424 76.452 19.424H74.124V23ZM74.124 15.512V18.536H76.452C76.716 18.536 76.94 18.492 77.124 18.404C77.316 18.308 77.46 18.172 77.556 17.996C77.66 17.812 77.712 17.592 77.712 17.336V16.712C77.712 16.456 77.66 16.24 77.556 16.064C77.46 15.88 77.316 15.744 77.124 15.656C76.94 15.56 76.716 15.512 76.452 15.512H74.124ZM83.5253 23.144C82.8053 23.144 82.1773 22.98 81.6413 22.652C81.1133 22.316 80.7013 21.828 80.4053 21.188C80.1173 20.54 79.9733 19.748 79.9733 18.812C79.9733 17.876 80.1173 17.088 80.4053 16.448C80.7013 15.8 81.1133 15.312 81.6413 14.984C82.1773 14.648 82.8053 14.48 83.5253 14.48C84.2453 14.48 84.8693 14.648 85.3973 14.984C85.9333 15.312 86.3453 15.8 86.6333 16.448C86.9293 17.088 87.0773 17.876 87.0773 18.812C87.0773 19.748 86.9293 20.54 86.6333 21.188C86.3453 21.828 85.9333 22.316 85.3973 22.652C84.8693 22.98 84.2453 23.144 83.5253 23.144ZM83.5253 22.244C84.0133 22.244 84.4413 22.132 84.8093 21.908C85.1773 21.676 85.4653 21.356 85.6733 20.948C85.8893 20.54 85.9973 20.06 85.9973 19.508V18.116C85.9973 17.564 85.8893 17.084 85.6733 16.676C85.4653 16.26 85.1773 15.94 84.8093 15.716C84.4413 15.492 84.0133 15.38 83.5253 15.38C83.0453 15.38 82.6173 15.492 82.2413 15.716C81.8733 15.94 81.5813 16.26 81.3653 16.676C81.1573 17.084 81.0533 17.564 81.0533 18.116V19.508C81.0533 20.06 81.1573 20.54 81.3653 20.948C81.5813 21.356 81.8733 21.676 82.2413 21.908C82.6173 22.132 83.0453 22.244 83.5253 22.244ZM91.1694 23H90.0534L88.0134 14.624H89.0814L89.9814 18.656L90.6774 21.788H90.7014L91.4814 18.656L92.5374 14.624H93.6894L94.7094 18.656L95.4894 21.776H95.5254L96.2454 18.656L97.1934 14.624H98.2254L96.0774 23H94.9614L93.8694 18.824L93.1014 15.752H93.0774L92.2854 18.824L91.1694 23ZM104.689 23H99.5769V14.624H104.689V15.512H100.585V18.32H104.449V19.208H100.585V22.112H104.689V23ZM107.581 19.4V23H106.573V14.624H109.909C110.397 14.624 110.813 14.716 111.157 14.9C111.509 15.084 111.777 15.352 111.961 15.704C112.153 16.056 112.249 16.488 112.249 17C112.249 17.608 112.105 18.112 111.817 18.512C111.529 18.912 111.113 19.176 110.569 19.304L112.489 23H111.349L109.537 19.4H107.581ZM107.581 18.536H109.909C110.173 18.536 110.397 18.492 110.581 18.404C110.773 18.308 110.917 18.172 111.013 17.996C111.117 17.812 111.169 17.592 111.169 17.336V16.712C111.169 16.456 111.117 16.24 111.013 16.064C110.917 15.88 110.773 15.744 110.581 15.656C110.397 15.56 110.173 15.512 109.909 15.512H107.581V18.536ZM119.361 23H114.249V14.624H119.361V15.512H115.257V18.32H119.121V19.208H115.257V22.112H119.361V23ZM121.245 23V14.624H124.053C124.749 14.624 125.353 14.78 125.865 15.092C126.385 15.396 126.785 15.86 127.065 16.484C127.345 17.1 127.485 17.876 127.485 18.812C127.485 19.748 127.345 20.528 127.065 21.152C126.785 21.768 126.385 22.232 125.865 22.544C125.353 22.848 124.749 23 124.053 23H121.245ZM122.253 22.112H124.053C124.517 22.112 124.925 22.008 125.277 21.8C125.629 21.592 125.905 21.296 126.105 20.912C126.305 20.52 126.405 20.048 126.405 19.496V18.128C126.405 17.576 126.305 17.104 126.105 16.712C125.905 16.32 125.629 16.024 125.277 15.824C124.925 15.616 124.517 15.512 124.053 15.512H122.253V22.112ZM132.132 23V14.624H135.576C136.264 14.624 136.808 14.82 137.208 15.212C137.608 15.604 137.808 16.128 137.808 16.784C137.808 17.2 137.732 17.532 137.58 17.78C137.436 18.028 137.256 18.212 137.04 18.332C136.832 18.452 136.636 18.528 136.452 18.56V18.632C136.604 18.64 136.772 18.684 136.956 18.764C137.148 18.836 137.328 18.948 137.496 19.1C137.672 19.252 137.816 19.448 137.928 19.688C138.04 19.928 138.096 20.224 138.096 20.576C138.096 21.032 138 21.444 137.808 21.812C137.624 22.18 137.368 22.472 137.04 22.688C136.72 22.896 136.352 23 135.936 23H132.132ZM133.14 19.112V22.112H135.624C135.912 22.112 136.16 22.064 136.368 21.968C136.576 21.864 136.736 21.716 136.848 21.524C136.96 21.332 137.016 21.096 137.016 20.816V20.408C137.016 20.128 136.96 19.892 136.848 19.7C136.736 19.508 136.576 19.364 136.368 19.268C136.16 19.164 135.912 19.112 135.624 19.112H133.14ZM133.14 15.512V18.248H135.456C135.72 18.248 135.944 18.204 136.128 18.116C136.32 18.02 136.468 17.888 136.572 17.72C136.676 17.544 136.728 17.332 136.728 17.084V16.676C136.728 16.428 136.676 16.22 136.572 16.052C136.468 15.876 136.32 15.744 136.128 15.656C135.944 15.56 135.72 15.512 135.456 15.512H133.14ZM142.536 23H141.528V19.688L138.648 14.624H139.8L142.032 18.656H142.068L144.3 14.624H145.452L142.536 19.652V23Z" fill="white"/>
<g clip-path="url(#clip0_1088_1921)">
<path d="M96.0222 37.1181L95.9923 46.8155H95.5314L94.8835 46.8119C93.8305 46.7336 93.0001 45.8538 93 44.7802V36.6661C93 33.2234 95.0948 31.4571 99.2541 31.4571C99.5923 31.4571 101.587 31.467 101.89 31.4868V34.1035C101.635 34.0753 99.6818 34.0615 99.3739 34.0615C97.0098 34.0615 96.0522 34.9896 96.0222 37.1181Z" fill="white"/>
<path fill-rule="evenodd" clip-rule="evenodd" d="M115.439 44.2343V34.2057H118.216C119.331 34.2057 120.075 34.5258 120.632 35.1448C121.237 35.8278 121.33 36.8487 121.33 39.1541C121.33 41.4595 121.237 42.6084 120.632 43.2918C120.075 43.9107 119.331 44.231 118.216 44.231H115.481V44.2343L115.439 44.2343ZM114.86 31.6188H112.389V46.8177H113.034H115.559H118.397C120.117 46.8177 121.674 46.3694 122.766 45.3662C124.626 43.6583 124.439 41.4384 124.439 39.1541C124.439 36.8701 124.626 34.7782 122.766 33.0703C121.674 32.0671 120.117 31.6189 118.397 31.6189L114.86 31.6188Z" fill="white"/>
<path d="M129.348 46.8177V31.6188H128.923C128.886 31.6219 128.497 31.6222 128.057 31.6217C126.982 31.677 126.127 32.5669 126.127 33.6563H126.122C126.122 33.6961 126.121 33.7363 126.118 33.7776V46.8177H129.348Z" fill="white"/>
<path fill-rule="evenodd" clip-rule="evenodd" d="M110.774 46.8154V44.4131V36.6661C110.774 33.2234 108.679 31.4571 104.52 31.4571C104.269 31.4571 103.737 31.4626 103.506 31.4736V34.0818C103.694 34.0684 104.186 34.0615 104.4 34.0615C106.764 34.0615 107.722 34.9896 107.722 36.9059V37.9834H103.712C100.241 37.9834 98.4753 39.8099 98.4753 42.3547C98.4753 43.6418 98.8941 44.8094 99.6723 45.6179C100.6 46.546 101.857 47 103.742 47C105.606 47 106.701 46.5057 107.796 45.4237C108.056 46.2052 108.776 46.7765 109.635 46.8154H110.684L110.774 46.8154ZM99.083 33.6317L99.0736 33.6424L99.083 33.6512V33.6317ZM107.722 41.3367C107.722 42.4146 107.512 43.133 107.063 43.5819C106.256 44.3605 105.388 44.4503 104.221 44.4503C102.306 44.4503 101.438 43.672 101.438 42.2948C101.438 40.9174 102.365 40.1092 104.161 40.1092H107.722L107.722 41.3367Z" fill="white"/>
<path fill-rule="evenodd" clip-rule="evenodd" d="M134.159 36.4997L134.514 37.1219C134.901 37.915 135.224 39.3857 134.225 40.9583L130.518 46.7935H134.38L137.507 41.4776L140.614 46.7935H144.518L134.755 31.6188H130.93L134.159 36.4997Z" fill="white"/>
<path fill-rule="evenodd" clip-rule="evenodd" d="M138.558 34.4928L140.532 31.275L140.864 30.7325C141.322 30.0709 142.254 29.1032 144.107 29.0379C144.256 29.0326 144.393 29.0196 144.518 29.0002L145.5 29.0001L140.396 37.2847L138.558 34.4928Z" fill="#B4D342"/>
</g>
<defs>
<clipPath id="clip0_1088_1921">
<rect width="52.5" height="18" fill="white" transform="translate(93 29.0001)"/>
</clipPath>
</defs>
</svg>
